<?xml version="1.0" encoding="utf-8"?>
<svg xmlns="http://www.w3.org/2000/svg" width="33" height="33" viewBox="0 0 33 33" fill="none">
<path d="M21.7495 3.99976H11.2495C9.8688 3.99976 8.74951 5.11904 8.74951 6.49976V26.4998C8.74951 27.8805 9.8688 28.9998 11.2495 28.9998H21.7495C23.1302 28.9998 24.2495 27.8805 24.2495 26.4998V6.49976C24.2495 5.11904 23.1302 3.99976 21.7495 3.99976Z" fill="url(#paint0_linear_9228_18531)"/>
<path d="M21.7495 3.99976H11.2495C9.86951 3.99976 8.74951 5.11976 8.74951 6.49976V26.4998C8.74951 27.8798 9.86951 28.9998 11.2495 28.9998H21.7495C23.1295 28.9998 24.2495 27.8798 24.2495 26.4998V6.49976C24.2495 5.11976 23.1295 3.99976 21.7495 3.99976ZM22.9995 26.4998C22.9995 27.1898 22.4395 27.7498 21.7495 27.7498H11.2495C10.5595 27.7498 9.99951 27.1898 9.99951 26.4998V6.49976C9.99951 5.80976 10.5595 5.24976 11.2495 5.24976H21.7495C22.4395 5.24976 22.9995 5.80976 22.9995 6.49976V26.4998Z" fill="#C694FF"/>
<path d="M13.0005 4.5249V5.5249C13.0005 6.0774 13.448 6.5249 14.0005 6.5249H19.0005C19.553 6.5249 20.0005 6.0774 20.0005 5.5249V4.5249H13.0005Z" fill="#C694FF"/>
<path d="M22.75 22.7502C26.2018 22.7502 29 19.952 29 16.5002C29 13.0485 26.2018 10.2502 22.75 10.2502C19.2982 10.2502 16.5 13.0485 16.5 16.5002C16.5 19.952 19.2982 22.7502 22.75 22.7502Z" fill="#00D1C7"/>
<path fill-rule="evenodd" clip-rule="evenodd" d="M23.2849 17.6675C23.2849 18.625 22.5174 19.445 21.1424 19.445C20.2874 19.445 19.5274 19.1175 19.2024 18.88C19.0224 18.745 18.8949 18.57 19.1174 18.275L19.3824 17.915C19.5524 17.685 19.7499 17.6675 20.0324 17.8125C20.0624 17.8275 20.0949 17.845 20.1349 17.865C20.3499 17.98 20.6949 18.1625 21.1424 18.1625C21.5899 18.1625 21.7924 17.9875 21.7924 17.7625C21.7924 17.44 21.3574 17.2675 20.8349 17.06C20.0599 16.7525 19.0924 16.3675 19.0924 15.3C19.0924 14.2325 20.0324 13.555 21.2699 13.555C21.9799 13.555 22.6274 13.785 22.9174 13.9775C23.1649 14.145 23.1899 14.345 23.0624 14.575L22.8574 14.95C22.6874 15.26 22.4549 15.2125 22.2174 15.1025C22.2074 15.0975 22.1949 15.0925 22.1824 15.0875C21.9124 14.965 21.6374 14.84 21.2524 14.84C20.7824 14.84 20.5849 15.015 20.5849 15.2375C20.5849 15.5725 21.0274 15.74 21.5524 15.94C22.3274 16.2325 23.2849 16.5975 23.2849 17.67V17.6675ZM24.8624 19.1125C24.7899 19.335 24.6424 19.4475 24.4024 19.4475H24.1824C23.8899 19.4475 23.7599 19.27 23.8474 18.9875L25.4599 13.89C25.5324 13.6675 25.6799 13.555 25.9199 13.555H26.1399C26.4324 13.555 26.5624 13.7325 26.4749 14.025L24.8624 19.115V19.1125Z" fill="#065F63"/>
<defs>
<linearGradient id="paint0_linear_9228_18531" x1="10.125" y1="6" x2="23.2808" y2="26.2519" gradientUnits="userSpaceOnUse">
<stop stop-color="#A45DF5"/>
<stop offset="1" stop-color="#6D15D1"/>
</linearGradient>
</defs>
</svg>