<?xml version="1.0" encoding="utf-8"?>
<svg xmlns="http://www.w3.org/2000/svg" width="33" height="33" viewBox="0 0 33 33" fill="none">
<path d="M19.3305 11.61C20.513 13.1025 21.218 14.9975 21.218 17.0575C21.218 21.8725 17.363 25.7725 12.608 25.7725C7.85299 25.7725 4.00049 21.8725 4.00049 17.0575C4.00049 14.9975 4.70799 13.1025 5.88799 11.61L5.89549 11.6C5.89549 11.6 8.88299 7.54997 11.1955 4.68747C11.9355 3.77247 13.2855 3.77247 14.0255 4.68747C16.343 7.55747 19.3355 11.6125 19.3355 11.6125H19.3305V11.61Z" fill="url(#paint0_linear_9226_18203)"/>
<path d="M18.895 25.36C18.895 27.37 20.54 29 22.57 29C24.6 29 26.245 27.37 26.245 25.36V23.4475H18.895V25.36Z" fill="url(#paint1_linear_9226_18203)"/>
<path d="M22.5696 10.585C19.0196 10.585 16.1396 13.465 16.1396 17.015C16.1396 18.1525 16.4471 19.235 17.0021 20.2025C17.0121 20.2225 18.7421 22.94 18.8971 23.4475H26.2471C26.3996 22.9425 28.1221 20.245 28.1121 20.26C28.6846 19.2825 29.0021 18.1725 29.0021 17.015C29.0021 13.4625 26.1221 10.585 22.5721 10.585H22.5696Z" fill="url(#paint2_linear_9226_18203)"/>
<path fill-rule="evenodd" clip-rule="evenodd" d="M18.5572 17.1977C18.9272 17.1977 19.2297 16.8977 19.2297 16.5252C19.2297 14.8927 20.5547 13.5677 22.1872 13.5677C22.5572 13.5677 22.8597 13.2677 22.8597 12.8952C22.8597 12.5227 22.5597 12.2227 22.1872 12.2227C19.8122 12.2227 17.8872 14.1477 17.8872 16.5227C17.8872 16.8927 18.1872 17.1952 18.5597 17.1952L18.5572 17.1977Z" fill="#FFECB8"/>
<path d="M22.5901 18.9475C22.1076 18.9475 21.7151 19.34 21.7151 19.8225V23.4475H23.4651V19.8225C23.4651 19.34 23.0726 18.9475 22.5901 18.9475Z" fill="#D46533"/>
<defs>
<linearGradient id="paint0_linear_9226_18203" x1="7.125" y1="6.75" x2="19.3232" y2="31.82" gradientUnits="userSpaceOnUse">
<stop offset="0.180761" stop-color="#44CDF8"/>
<stop offset="0.812334" stop-color="#3586F9"/>
</linearGradient>
<linearGradient id="paint1_linear_9226_18203" x1="22.5005" y1="23.5" x2="22.5005" y2="33" gradientUnits="userSpaceOnUse">
<stop stop-color="#3B3959"/>
<stop offset="1" stop-color="#6A6A94"/>
</linearGradient>
<linearGradient id="paint2_linear_9226_18203" x1="6.52109" y1="-4.97269" x2="32.9407" y2="30.7258" gradientUnits="userSpaceOnUse">
<stop offset="0.535036" stop-color="#FFC21F"/>
<stop offset="0.82398" stop-color="#FF7938"/>
</linearGradient>
</defs>
</svg>