<?xml version="1.0" encoding="utf-8"?>
<svg xmlns="http://www.w3.org/2000/svg" width="33" height="33" viewBox="0 0 33 33" fill="none">
<path fill-rule="evenodd" clip-rule="evenodd" d="M28.1053 14.8324L25.8953 13.3649C25.4728 13.0849 25.2603 12.5749 25.3628 12.0774L25.8878 9.47493C26.1703 8.07243 24.9328 6.83243 23.5278 7.11493L20.9253 7.63993C20.4278 7.73993 19.9178 7.52993 19.6378 7.10743L18.1703 4.89743C17.3778 3.70493 15.6253 3.70493 14.8328 4.89743L13.3653 7.10743C13.0853 7.52993 12.5753 7.74243 12.0778 7.63993L9.44529 7.10993C8.05779 6.82993 6.83029 8.05493 7.11029 9.44493L7.64029 12.0774C7.74029 12.5749 7.53029 13.0849 7.10779 13.3649L4.89779 14.8324C3.70529 15.6249 3.70529 17.3774 4.89779 18.1699L7.10779 19.6374C7.53029 19.9174 7.74279 20.4274 7.64029 20.9249L7.11529 23.5274C6.83279 24.9299 8.07029 26.1699 9.47529 25.8874L12.0778 25.3624C12.5753 25.2624 13.0853 25.4724 13.3653 25.8949L14.8328 28.1049C15.6253 29.2974 17.3778 29.2974 18.1703 28.1049L19.6378 25.8949C19.9178 25.4724 20.4278 25.2599 20.9253 25.3624L23.5278 25.8874C24.9303 26.1699 26.1703 24.9324 25.8878 23.5274L25.3628 20.9249C25.2628 20.4274 25.4728 19.9174 25.8953 19.6374L28.1053 18.1699C29.2978 17.3774 29.2978 15.6249 28.1053 14.8324Z" fill="url(#paint0_linear_9228_18316)"/>
<path d="M13.5806 15.0798C14.409 15.0798 15.0806 14.4083 15.0806 13.5798C15.0806 12.7514 14.409 12.0798 13.5806 12.0798C12.7521 12.0798 12.0806 12.7514 12.0806 13.5798C12.0806 14.4083 12.7521 15.0798 13.5806 15.0798Z" fill="#8C4329"/>
<path d="M19.3901 20.8898C20.2186 20.8898 20.8901 20.2182 20.8901 19.3898C20.8901 18.5613 20.2186 17.8898 19.3901 17.8898C18.5617 17.8898 17.8901 18.5613 17.8901 19.3898C17.8901 20.2182 18.5617 20.8898 19.3901 20.8898Z" fill="#8C4329"/>
<path fill-rule="evenodd" clip-rule="evenodd" d="M20.4804 12.5198C19.8954 11.9348 18.9454 11.9348 18.3579 12.5198L12.5179 18.3598C11.9329 18.9448 11.9329 19.8948 12.5179 20.4823C13.1029 21.0673 14.0529 21.0673 14.6404 20.4823L20.4804 14.6423C21.0654 14.0573 21.0654 13.1073 20.4804 12.5198Z" fill="#8C4329"/>
<defs>
<linearGradient id="paint0_linear_9228_18316" x1="3.75" y1="0.375" x2="29.25" y2="35.25" gradientUnits="userSpaceOnUse">
<stop offset="0.373223" stop-color="#FFC21F"/>
<stop offset="0.985717" stop-color="#FF7938"/>
</linearGradient>
</defs>
</svg>