<?xml version="1.0" encoding="utf-8"?>
<svg xmlns="http://www.w3.org/2000/svg" width="33" height="33" viewBox="0 0 33 33" fill="none">
<path fill-rule="evenodd" clip-rule="evenodd" d="M26.228 7.18735C25.9555 6.01235 24.898 5.22485 23.738 5.24985C23.5705 5.25235 23.398 5.27485 23.228 5.31485L5.91797 9.31485V18.4998H28.6105V17.5098L26.2255 7.18985L26.228 7.18735Z" fill="url(#paint0_linear_9226_18195)"/>
<path d="M26.5005 9.25012H6.50049C5.11978 9.25012 4.00049 10.3694 4.00049 11.7501V25.2501C4.00049 26.6308 5.11978 27.7501 6.50049 27.7501H26.5005C27.8812 27.7501 29.0005 26.6308 29.0005 25.2501V11.7501C29.0005 10.3694 27.8812 9.25012 26.5005 9.25012Z" fill="url(#paint1_linear_9226_18195)"/>
<path fill-rule="evenodd" clip-rule="evenodd" d="M9.00049 27.7501H6.50049C5.12049 27.7501 4.00049 26.6301 4.00049 25.2501V22.7501C6.76299 22.7501 9.00049 24.9876 9.00049 27.7501Z" fill="#22BE99"/>
<path fill-rule="evenodd" clip-rule="evenodd" d="M9.00049 9.25012C9.00049 12.0101 6.76299 14.2501 4.00049 14.2501V11.7501C4.00049 10.3676 5.12049 9.25012 6.50049 9.25012H9.00049Z" fill="#22BE99"/>
<path fill-rule="evenodd" clip-rule="evenodd" d="M29 11.75V14.25C26.2375 14.25 24 12.01 24 9.25H26.5C27.88 9.25 29 10.3675 29 11.75Z" fill="#22BE99"/>
<path fill-rule="evenodd" clip-rule="evenodd" d="M29 22.75V25.25C29 26.63 27.88 27.75 26.5 27.75H24C24 24.9875 26.2375 22.75 29 22.75Z" fill="#22BE99"/>
<path fill-rule="evenodd" clip-rule="evenodd" d="M17.1819 19.9873C17.1819 21.2048 16.2044 22.2498 14.4544 22.2498C13.3669 22.2498 12.3994 21.8348 11.9869 21.5298C11.7594 21.3573 11.5944 21.1348 11.8769 20.7573L12.2144 20.2998C12.4319 20.0048 12.6819 19.9848 13.0394 20.1673C13.0769 20.1873 13.1194 20.2098 13.1694 20.2348C13.4419 20.3798 13.8794 20.6148 14.4519 20.6148C15.0244 20.6148 15.2769 20.3923 15.2769 20.1073C15.2769 19.6948 14.7219 19.4748 14.0594 19.2123C13.0719 18.8198 11.8419 18.3323 11.8419 16.9723C11.8419 15.6123 13.0369 14.7498 14.6144 14.7498C15.5169 14.7498 16.3419 15.0448 16.7119 15.2873C17.0269 15.4998 17.0594 15.7548 16.8969 16.0473L16.6344 16.5248C16.4169 16.9198 16.1244 16.8598 15.8194 16.7173C15.8044 16.7098 15.7919 16.7048 15.7769 16.6973C15.4319 16.5398 15.0819 16.3823 14.5919 16.3823C13.9944 16.3823 13.7444 16.6048 13.7444 16.8898C13.7444 17.3173 14.3069 17.5298 14.9744 17.7823C15.9594 18.1573 17.1794 18.6198 17.1794 19.9848L17.1819 19.9873ZM19.1869 21.8248C19.0944 22.1098 18.9069 22.2498 18.6019 22.2498H18.3219C17.9519 22.2498 17.7844 22.0223 17.8944 21.6623L19.9444 15.1748C20.0369 14.8898 20.2244 14.7498 20.5294 14.7498H20.8094C21.1794 14.7498 21.3469 14.9773 21.2369 15.3473L19.1869 21.8248Z" fill="#065F63"/>
<defs>
<linearGradient id="paint0_linear_9226_18195" x1="5.5" y1="9.49985" x2="24.25" y2="4.99985" gradientUnits="userSpaceOnUse">
<stop stop-color="#057F80"/>
<stop offset="1" stop-color="#039C98"/>
</linearGradient>
<linearGradient id="paint1_linear_9226_18195" x1="3.75" y1="0.750001" x2="36" y2="33.375" gradientUnits="userSpaceOnUse">
<stop offset="0.296922" stop-color="#65F2A6"/>
<stop offset="1" stop-color="#00B897"/>
</linearGradient>
</defs>
</svg>