<?xml version="1.0" encoding="utf-8"?>
<svg xmlns="http://www.w3.org/2000/svg" width="33" height="33" viewBox="0 0 33 33" fill="none">
<path d="M16.5625 26.0625C22.6376 26.0625 27.5625 21.1376 27.5625 15.0625C27.5625 8.98737 22.6376 4.0625 16.5625 4.0625C10.4874 4.0625 5.5625 8.98737 5.5625 15.0625C5.5625 21.1376 10.4874 26.0625 16.5625 26.0625Z" fill="#22BE99"/>
<path d="M16.5625 24.5625C21.8092 24.5625 26.0625 20.3092 26.0625 15.0625C26.0625 9.81579 21.8092 5.5625 16.5625 5.5625C11.3158 5.5625 7.0625 9.81579 7.0625 15.0625C7.0625 20.3092 11.3158 24.5625 16.5625 24.5625Z" fill="url(#paint0_linear_9228_18435)"/>
<path d="M18.385 14.335L17.27 13.865L17.34 11.1025C17.7875 11.16 18.21 11.32 18.5975 11.5725C18.8325 11.72 19.1125 11.7675 19.395 11.71C19.6775 11.6525 19.91 11.4925 20.0525 11.25C20.345 10.7925 20.2175 10.195 19.77 9.885C19.16 9.4725 18.42 9.22 17.54 9.15V8.8175C17.54 8.645 17.4825 8.485 17.365 8.37C17.2475 8.255 17.0825 8.1875 16.9075 8.1875C16.555 8.1875 16.2725 8.4525 16.2625 8.795V9.1275C15.205 9.2075 14.3725 9.505 13.7725 10.0225C12.9975 10.675 12.61 11.5125 12.61 12.5225C12.61 13.5325 13.0225 14.3675 13.8425 14.9875C14.2075 15.2725 14.735 15.56 15.44 15.835L16.0375 16.075L15.98 18.9525C15.57 18.93 15.1 18.78 14.5825 18.5175C14.4525 18.45 14.335 18.38 14.2175 18.3C13.7125 17.955 13.02 18.07 12.645 18.565C12.305 19.0125 12.3975 19.63 12.8325 19.975C13.1025 20.1825 13.3975 20.365 13.725 20.515C14.395 20.835 15.075 20.995 15.7675 21.02V21.285C15.7575 21.4575 15.815 21.6175 15.9325 21.7425C16.05 21.87 16.225 21.9375 16.39 21.9375C16.73 21.9375 17 21.6725 17.0125 21.3525V20.9975C17.3875 20.975 17.8 20.8825 18.235 20.7225C18.68 20.5625 19.045 20.3675 19.3275 20.1375C20.2325 19.425 20.69 18.5325 20.69 17.4775C20.69 16.0675 19.915 15.0125 18.3525 14.335H18.3875H18.385ZM16.1775 13.485L15.9775 13.3925C15.38 13.1175 15.0725 12.7275 15.0725 12.235C15.0725 11.9025 15.1775 11.6275 15.3775 11.42C15.5875 11.2125 15.86 11.1 16.21 11.075L16.1525 13.47L16.1775 13.4825V13.485ZM17.9175 18.6125C17.67 18.8425 17.4 18.9675 17.095 18.99L17.1525 16.42L17.435 16.5575C18 16.8325 18.28 17.245 18.28 17.795C18.28 18.105 18.1625 18.38 17.915 18.61L17.9175 18.6125Z" fill="#087272"/>
<path d="M25.0625 26.0625H8.0625C7.235 26.0625 6.5625 26.735 6.5625 27.5625C6.5625 28.39 7.235 29.0625 8.0625 29.0625H25.0625C25.89 29.0625 26.5625 28.39 26.5625 27.5625C26.5625 26.735 25.89 26.0625 25.0625 26.0625Z" fill="url(#paint1_linear_9228_18435)"/>
<defs>
<linearGradient id="paint0_linear_9228_18435" x1="8.62501" y1="6.75001" x2="28.875" y2="26.625" gradientUnits="userSpaceOnUse">
<stop stop-color="#65F2A6"/>
<stop offset="1" stop-color="#00B897"/>
</linearGradient>
<linearGradient id="paint1_linear_9228_18435" x1="6.19412" y1="27.0249" x2="26.625" y2="27" gradientUnits="userSpaceOnUse">
<stop stop-color="#057F80"/>
<stop offset="1" stop-color="#039C98"/>
</linearGradient>
</defs>
</svg>