<?xml version="1.0" encoding="UTF-8"?>
<svg xmlns="http://www.w3.org/2000/svg" xmlns:xlink="http://www.w3.org/1999/xlink" width="75px" height="19px" viewBox="0 0 75 19" version="1.1">
<g id="surface1">
<path style=" stroke:none;fill-rule:nonzero;fill:rgb(0%,25.490198%,57.254905%);fill-opacity:1;" d="M 25.761719 8.941406 C 27.601562 9.558594 28.640625 10.625 28.777344 12.46875 C 28.925781 14.519531 28.050781 16.050781 26.40625 17.183594 C 25.460938 17.847656 24.390625 18.246094 23.265625 18.449219 C 21.128906 18.847656 18.976562 18.863281 16.84375 18.515625 C 14.691406 18.171875 13.746094 16.851562 14.210938 14.6875 C 15.171875 10.222656 16.199219 5.761719 17.210938 1.3125 C 17.296875 0.964844 17.390625 0.695312 17.84375 0.664062 C 20.25 0.453125 22.648438 0.0820312 25.078125 0.496094 C 25.972656 0.648438 26.835938 0.867188 27.628906 1.265625 C 30.375 2.632812 30.660156 5.925781 28.222656 7.78125 C 27.53125 8.292969 26.753906 8.625 25.761719 8.941406 Z M 19.433594 10.644531 C 19.117188 12.09375 18.816406 13.429688 18.523438 14.738281 C 18.414062 15.238281 18.472656 15.636719 19.074219 15.675781 C 20.460938 15.742188 21.855469 15.675781 23.09375 14.945312 C 24.039062 14.394531 24.433594 13.527344 24.300781 12.425781 C 24.164062 11.378906 23.421875 10.960938 22.515625 10.675781 C 21.503906 10.375 20.527344 10.878906 19.433594 10.644531 Z M 22.5 3.363281 C 22.074219 3.648438 21.253906 2.964844 20.992188 3.859375 C 20.707031 4.863281 20.511719 5.886719 20.28125 6.921875 C 20.199219 7.269531 20.308594 7.585938 20.691406 7.609375 C 22.183594 7.691406 23.671875 7.707031 24.878906 6.640625 C 26.054688 5.609375 25.6875 4.011719 24.195312 3.527344 C 23.671875 3.386719 23.128906 3.386719 22.5 3.363281 Z M 22.5 3.363281 "/>
<path style=" stroke:none;fill-rule:nonzero;fill:rgb(0%,25.490198%,57.254905%);fill-opacity:1;" d="M 61.703125 3.617188 C 60.855469 1.28125 58.71875 0.730469 56.535156 0.519531 C 54.515625 0.316406 52.476562 0.421875 50.460938 0.65625 C 49.761719 0.738281 49.417969 1.003906 49.253906 1.742188 C 48.058594 7.207031 46.824219 12.667969 45.609375 18.132812 C 45.554688 18.335938 45.457031 18.546875 45.71875 18.796875 C 46.199219 18.796875 46.761719 18.796875 47.308594 18.796875 C 49.328125 18.796875 49.925781 18.3125 50.371094 16.347656 C 50.632812 15.175781 50.902344 14 51.148438 12.863281 C 51.5625 12.710938 51.890625 12.832031 52.222656 12.847656 C 55.132812 12.945312 57.898438 12.464844 60.039062 10.269531 C 61.867188 8.390625 62.625 6.128906 61.703125 3.617188 Z M 58.058594 6.53125 C 57.660156 8.429688 56.039062 9.613281 53.804688 9.628906 C 52.351562 9.628906 52.214844 9.460938 52.53125 7.976562 C 52.792969 6.761719 53.078125 5.5625 53.296875 4.34375 C 53.390625 3.738281 53.691406 3.511719 54.269531 3.511719 C 54.886719 3.5 55.492188 3.460938 56.109375 3.582031 C 57.699219 3.882812 58.386719 4.929688 58.058594 6.53125 Z M 58.058594 6.53125 "/>
<path style=" stroke:none;fill-rule:nonzero;fill:rgb(0%,25.490198%,57.254905%);fill-opacity:1;" d="M 45.359375 0.835938 C 41.535156 -0.566406 37.859375 -0.308594 34.695312 2.433594 C 31.664062 5.066406 30.703125 8.566406 31.085938 12.492188 C 31.304688 14.738281 32.25 16.625 34.253906 17.769531 C 36.800781 19.234375 39.53125 19.285156 42.285156 18.472656 C 42.898438 18.292969 43.359375 17.855469 43.53125 17.207031 C 43.777344 16.226562 43.996094 15.238281 44.242188 14.121094 C 43.378906 14.589844 42.691406 15.019531 41.894531 15.269531 C 39.398438 16.050781 36.890625 15.085938 36.015625 12.984375 C 34.808594 10.089844 36.523438 5.519531 39.390625 4.191406 C 41.738281 3.105469 44.011719 3.589844 46.273438 4.855469 C 46.410156 4.359375 46.539062 3.90625 46.65625 3.453125 C 46.980469 2.082031 46.703125 1.335938 45.359375 0.835938 Z M 45.359375 0.835938 "/>
<path style=" stroke:none;fill-rule:nonzero;fill:rgb(97.647059%,41.568628%,32.549021%);fill-opacity:1;" d="M 6.953125 2.203125 C 9.203125 3.347656 11.011719 5 12.328125 7.132812 C 13.140625 8.445312 13.042969 9.898438 12.136719 11.167969 C 10.265625 13.796875 7.777344 15.726562 4.898438 17.0625 C 2.960938 17.960938 0.824219 16.910156 0 14.800781 C 1.164062 14.183594 2.316406 13.546875 3.375 12.773438 C 4.964844 11.605469 6.335938 10.253906 7.019531 8.339844 C 7.949219 6.28125 8.03125 4.230469 6.953125 2.203125 Z M 6.953125 2.203125 "/>
<path style=" stroke:none;fill-rule:nonzero;fill:rgb(97.647059%,41.568628%,32.549021%);fill-opacity:1;" d="M 69.039062 2.203125 C 71.289062 3.332031 73.09375 5.015625 74.4375 7.132812 C 75.246094 8.414062 75.179688 9.832031 74.300781 11.074219 C 72.414062 13.773438 69.886719 15.734375 66.9375 17.085938 C 65.015625 17.953125 62.933594 16.882812 62.121094 14.824219 C 63.21875 14.21875 64.328125 13.625 65.332031 12.878906 C 66.976562 11.679688 68.429688 10.3125 69.121094 8.332031 C 70.058594 6.265625 70.125 4.214844 69.039062 2.203125 Z M 69.039062 2.203125 "/>
<path style=" stroke:none;fill-rule:nonzero;fill:rgb(0%,25.490198%,57.254905%);fill-opacity:1;" d="M 6.953125 2.203125 C 8.023438 4.230469 7.925781 6.265625 7.003906 8.316406 C 5.59375 6.777344 3.839844 5.730469 1.988281 4.902344 C 2.960938 2.246094 5.183594 1.085938 6.953125 2.203125 Z M 6.953125 2.203125 "/>
<path style=" stroke:none;fill-rule:nonzero;fill:rgb(0%,25.490198%,57.254905%);fill-opacity:1;" d="M 69.039062 2.203125 C 70.132812 4.230469 70.066406 6.265625 69.105469 8.332031 C 67.71875 6.800781 65.976562 5.769531 64.019531 4.886719 C 64.664062 3.421875 65.59375 2.351562 67.050781 1.800781 C 67.792969 1.5 68.4375 1.71875 69.039062 2.203125 Z M 69.039062 2.203125 "/>
</g>
</svg>
