<?xml version="1.0" encoding="UTF-8"?>
<!DOCTYPE svg PUBLIC "-//W3C//DTD SVG 1.1//EN" "http://www.w3.org/Graphics/SVG/1.1/DTD/svg11.dtd">
<svg xmlns="http://www.w3.org/2000/svg" version="1.1" width="300px" height="300px" style="shape-rendering:geometricPrecision; text-rendering:geometricPrecision; image-rendering:optimizeQuality; fill-rule:evenodd; clip-rule:evenodd" xmlns:xlink="http://www.w3.org/1999/xlink">
<g><path style="opacity:0.936" fill="#fe7900" d="M 144.5,4.5 C 153.437,2.55533 159.937,5.55533 164,13.5C 164.333,73.8333 164.667,134.167 165,194.5C 176.667,180.833 188.333,167.167 200,153.5C 209.124,144.958 217.457,145.625 225,155.5C 227.826,162.726 226.492,169.059 221,174.5C 199.775,199.05 178.608,223.55 157.5,248C 152.5,248.667 147.5,248.667 142.5,248C 119.094,221.712 96.2607,194.878 74,167.5C 72.4674,150.031 79.9674,144.198 96.5,150C 109.709,164.873 122.542,180.04 135,195.5C 135.333,134.833 135.667,74.1667 136,13.5C 137.662,9.33975 140.495,6.33975 144.5,4.5 Z"/></g>
<g><path style="opacity:0.932" fill="#fe7900" d="M 36.5,266.5 C 112.167,266.333 187.834,266.5 263.5,267C 269.746,269.475 272.746,274.141 272.5,281C 272.826,288.366 269.493,293.032 262.5,295C 187.5,295.667 112.5,295.667 37.5,295C 30.8506,292.556 27.5172,287.723 27.5,280.5C 27.5259,273.752 30.5259,269.086 36.5,266.5 Z"/></g>
</svg>
