<?xml version="1.0" encoding="UTF-8"?>
<!DOCTYPE svg PUBLIC "-//W3C//DTD SVG 1.1//EN" "http://www.w3.org/Graphics/SVG/1.1/DTD/svg11.dtd">
<svg xmlns="http://www.w3.org/2000/svg" version="1.1" width="300px" height="300px" style="shape-rendering:geometricPrecision; text-rendering:geometricPrecision; image-rendering:optimizeQuality; fill-rule:evenodd; clip-rule:evenodd" xmlns:xlink="http://www.w3.org/1999/xlink">
<g><path style="opacity:0.957" fill="#ff7900" d="M 230.5,18.5 C 250.248,16.6256 265.415,23.9589 276,40.5C 286.002,62.4889 282.169,81.6555 264.5,98C 247.371,108.949 230.038,109.282 212.5,99C 210.306,96.8063 208.14,94.6396 206,92.5C 172.913,110.294 139.746,127.961 106.5,145.5C 105.782,150.182 105.116,154.849 104.5,159.5C 104.709,160.086 105.043,160.586 105.5,161C 139.274,176.304 173.108,191.471 207,206.5C 219.656,194.627 234.489,190.794 251.5,195C 274.565,203.954 284.732,220.787 282,245.5C 274.827,270.998 257.994,282.831 231.5,281C 212.768,276.602 200.935,265.102 196,246.5C 195.501,241.845 195.334,237.179 195.5,232.5C 159.963,217.401 124.63,201.734 89.5,185.5C 73.3142,197.37 56.3142,198.537 38.5,189C 19.0967,174.219 13.5967,155.386 22,132.5C 32.34,113.079 48.5067,104.913 70.5,108C 79.2642,109.964 86.7642,114.13 93,120.5C 126.421,102.539 159.921,84.706 193.5,67C 193.694,41.3999 206.028,25.2332 230.5,18.5 Z"/></g>
<g><path style="opacity:1" fill="#fffcfa" d="M 232.5,49.5 C 247.835,48.6594 254.002,55.6594 251,70.5C 246.666,77.283 240.499,79.783 232.5,78C 223.228,72.2177 221.062,64.3844 226,54.5C 227.965,52.4497 230.132,50.783 232.5,49.5 Z"/></g>
<g><path style="opacity:1" fill="#fffbf8" d="M 57.5,136.5 C 74.3422,136.829 79.8422,144.829 74,160.5C 62.7522,169.938 54.0855,167.938 48,154.5C 47.059,146.288 50.2257,140.288 57.5,136.5 Z"/></g>
<g><path style="opacity:1" fill="#fffcf9" d="M 233.5,223.5 C 249.781,223.599 255.281,231.265 250,246.5C 242.345,255.332 234.345,255.666 226,247.5C 220.802,236.958 223.302,228.958 233.5,223.5 Z"/></g>
</svg>
