<?xml version="1.0" standalone="no"?>
<!DOCTYPE svg PUBLIC "-//W3C//DTD SVG 20010904//EN"
 "http://www.w3.org/TR/2001/REC-SVG-20010904/DTD/svg10.dtd">
<svg version="1.0" xmlns="http://www.w3.org/2000/svg"
 width="60.000000pt" height="60.000000pt" viewBox="0 0 60.000000 60.000000"
 preserveAspectRatio="xMidYMid meet">

<g transform="translate(0.000000,60.000000) scale(0.100000,-0.100000)"
fill="#742384" stroke="none">
<path d="M402 558 c-18 -18 -15 -24 24 -68 l36 -40 -205 0 c-170 0 -207 -3
-217 -15 -10 -12 -10 -18 0 -30 10 -12 47 -15 217 -15 l205 0 -36 -40 c-40
-45 -42 -52 -22 -69 10 -9 20 -9 33 -3 27 15 133 129 133 143 0 15 -132 149
-146 149 -6 0 -15 -5 -22 -12z"/>
<path d="M98 262 c-37 -38 -68 -74 -68 -81 0 -14 106 -128 133 -143 13 -6 23
-6 33 3 20 17 18 24 -22 69 l-36 40 205 0 c170 0 207 3 217 15 10 12 10 18 0
30 -10 12 -47 15 -217 15 l-205 0 36 40 c39 44 42 50 24 68 -20 20 -29 15
-100 -56z"/>
</g>
</svg>
