<?xml version="1.0" standalone="no"?>
<!DOCTYPE svg PUBLIC "-//W3C//DTD SVG 20010904//EN"
 "http://www.w3.org/TR/2001/REC-SVG-20010904/DTD/svg10.dtd">
<svg version="1.0" xmlns="http://www.w3.org/2000/svg"
 width="160.000000pt" height="150.000000pt" viewBox="0 0 160.000000 150.000000"
 preserveAspectRatio="xMidYMid meet">

<g transform="translate(0.000000,150.000000) scale(0.100000,-0.100000)"
fill="#423156" stroke="none">
<path d="M51 1364 c-42 -53 -31 -77 89 -198 l109 -111 3 -395 c3 -385 4 -396
25 -436 12 -23 37 -54 55 -69 72 -61 64 -60 537 -63 253 -2 460 1 497 7 83 13
140 52 179 123 l30 53 0 460 c0 516 1 510 -70 581 -76 75 -61 74 -791 74
l-643 0 -20 -26z m1230 -307 c47 -36 52 -105 10 -148 l-29 -29 -327 0 -327 0
-29 29 c-39 40 -41 97 -3 135 l27 26 331 0 c244 -1 335 -4 347 -13z m14 -262
c37 -36 35 -97 -5 -136 l-29 -30 -331 3 -332 3 -24 28 c-33 39 -33 99 1 132
l24 25 336 0 336 0 24 -25z m-319 -238 c15 -18 24 -41 24 -63 0 -86 -39 -104
-228 -104 -77 0 -153 5 -171 11 -53 18 -76 86 -47 138 26 46 48 51 229 48
l169 -2 24 -28z"/>
</g>
</svg>
