<?xml version="1.0" standalone="no"?>
<!DOCTYPE svg PUBLIC "-//W3C//DTD SVG 20010904//EN"
 "http://www.w3.org/TR/2001/REC-SVG-20010904/DTD/svg10.dtd">
<svg version="1.0" xmlns="http://www.w3.org/2000/svg"
 width="100.000000pt" height="100.000000pt" viewBox="0 0 100.000000 100.000000"
 preserveAspectRatio="xMidYMid meet">

<g transform="translate(0.000000,100.000000) scale(0.100000,-0.100000)"
fill="#742384" stroke="none">
<path d="M672 797 l-42 -43 -67 10 c-86 11 -200 -10 -293 -55 -73 -36 -205
-160 -216 -204 -8 -32 28 -89 97 -154 l48 -45 -45 -48 c-24 -26 -44 -52 -44
-57 0 -12 29 -41 41 -41 5 0 119 111 252 248 394 401 385 390 355 420 -21 21
-43 13 -86 -31z m-138 -135 c3 -5 -40 -53 -95 -108 l-99 -99 0 38 c0 75 44
137 117 162 44 16 70 18 77 7z"/>
<path d="M728 623 c-55 -56 -57 -59 -49 -95 28 -121 -70 -229 -193 -214 -51 6
-53 5 -95 -38 l-43 -44 51 -11 c201 -43 412 37 536 202 l45 59 -22 40 c-25 44
-141 158 -161 158 -7 0 -38 -26 -69 -57z"/>
</g>
</svg>
