<?xml version="1.0" standalone="no"?>
<!DOCTYPE svg PUBLIC "-//W3C//DTD SVG 20010904//EN"
 "http://www.w3.org/TR/2001/REC-SVG-20010904/DTD/svg10.dtd">
<svg version="1.0" xmlns="http://www.w3.org/2000/svg"
 width="100.000000pt" height="100.000000pt" viewBox="0 0 100.000000 100.000000"
 preserveAspectRatio="xMidYMid meet">

<g transform="translate(0.000000,100.000000) scale(0.100000,-0.100000)"
fill="#742384" stroke="none">
<path d="M400 754 c-105 -22 -186 -68 -267 -150 -40 -40 -75 -85 -79 -99 -7
-30 25 -85 87 -145 229 -222 603 -193 794 63 l45 59 -22 40 c-33 59 -137 151
-210 187 -68 34 -179 61 -243 60 -22 0 -69 -7 -105 -15z m152 -94 c78 -22 130
-90 130 -170 0 -133 -129 -217 -246 -160 -139 67 -126 273 21 325 47 17 49 17
95 5z"/>
<path d="M457 579 c-23 -13 -47 -62 -47 -95 0 -35 59 -94 94 -94 93 0 140 107
77 171 -23 22 -39 29 -68 29 -21 0 -46 -5 -56 -11z"/>
</g>
</svg>
