<?xml version="1.0" standalone="no"?>
<!DOCTYPE svg PUBLIC "-//W3C//DTD SVG 20010904//EN"
 "http://www.w3.org/TR/2001/REC-SVG-20010904/DTD/svg10.dtd">
<svg version="1.0" xmlns="http://www.w3.org/2000/svg"
 width="100.000000pt" height="100.000000pt" viewBox="0 0 100.000000 100.000000"
 preserveAspectRatio="xMidYMid meet">

<g transform="translate(0.000000,100.000000) scale(0.100000,-0.100000)"
fill="#742384" stroke="none">
<path d="M244 819 l-29 -30 -3 -277 c-2 -263 -1 -279 18 -310 11 -18 34 -41
52 -52 31 -18 51 -20 270 -20 202 0 239 2 252 16 14 13 16 56 16 320 0 324 -3
349 -49 374 -12 6 -114 10 -258 10 l-239 0 -30 -31z m484 -137 c7 -49 -6 -52
-214 -52 -162 0 -195 3 -208 16 -19 18 -19 20 -6 45 10 18 21 19 218 17 l207
-3 3 -23z m-17 -162 c21 -12 25 -50 7 -68 -9 -9 -68 -12 -204 -12 -162 0 -195
3 -208 16 -20 19 -20 24 0 52 15 21 20 22 200 22 109 0 193 -4 205 -10z m15
-205 c12 -48 -7 -56 -135 -53 -113 3 -116 4 -119 26 -7 49 -1 52 127 52 120 0
121 0 127 -25z"/>
</g>
</svg>
