<?xml version="1.0" standalone="no"?>
<!DOCTYPE svg PUBLIC "-//W3C//DTD SVG 20010904//EN"
 "http://www.w3.org/TR/2001/REC-SVG-20010904/DTD/svg10.dtd">
<svg version="1.0" xmlns="http://www.w3.org/2000/svg"
 width="87.000000pt" height="88.000000pt" viewBox="0 0 87.000000 88.000000"
 preserveAspectRatio="xMidYMid meet">

<g transform="translate(0.000000,88.000000) scale(0.100000,-0.100000)"
fill="#000000" stroke="none">
<path d="M127 733 c-4 -3 -7 -14 -7 -24 0 -20 34 -33 67 -27 22 4 30 37 11 49
-16 10 -62 12 -71 2z"/>
<path d="M244 725 c-8 -19 13 -45 36 -45 15 0 13 -6 -12 -30 -23 -23 -39 -30
-68 -30 -21 0 -42 -5 -45 -10 -11 -18 6 -50 27 -50 16 0 19 -4 14 -22 -3 -13
-9 -40 -12 -60 -5 -30 -11 -37 -33 -40 -20 -2 -26 -8 -26 -28 0 -21 5 -26 33
-28 23 -2 32 -8 32 -21 0 -9 16 -44 36 -77 29 -48 36 -68 35 -107 -2 -53 3
-55 65 -33 31 10 52 11 98 3 151 -28 300 64 343 212 43 150 -36 306 -184 361
-71 26 -330 30 -339 5z m341 -68 c112 -58 163 -194 115 -306 -45 -103 -147
-162 -253 -146 -28 4 -68 8 -87 9 -26 1 -36 6 -38 20 -3 11 -19 41 -38 68 -88
128 -30 309 117 365 43 16 145 11 184 -10z"/>
<path d="M392 569 c-75 -16 -96 -77 -41 -123 17 -14 36 -26 43 -26 7 0 21 -9
31 -20 17 -19 17 -20 0 -26 -10 -4 -32 -2 -49 4 -24 10 -33 9 -45 -2 -21 -21
-7 -43 35 -55 88 -24 161 40 124 109 -5 10 -30 26 -55 36 -71 27 -50 64 22 40
19 -6 23 -3 29 19 3 14 4 28 2 31 -13 12 -66 20 -96 13z"/>
<path d="M562 433 c-40 -115 -41 -140 -6 -126 12 4 84 202 84 231 0 6 -8 12
-19 12 -14 0 -27 -24 -59 -117z"/>
</g>
</svg>
