<svg id="logosandtypes_com" xmlns="http://www.w3.org/2000/svg" viewBox="0 0 150 150"><style>.st1{fill:#00a5ab}</style><path d="M0 0h150v150H0V0z" fill="none" id="Layer_2"/><g id="logosandtypes_com"><path class="st1" d="M102.7 58.7c11.1-9 12.8-25.4 3.8-36.5-5.1-6.3-12.6-9.6-20.1-9.6h-24c-5.7 0-11.4 1.9-16.2 5.8-6.3 5.1-9.6 12.6-9.6 20.1v36s5.5-9.1 19.8-10.1h29c6 .3 12.2-1.6 17.3-5.7zM110.2 124c12.3-10 14.1-28 4.2-40.3-5.7-7-13.9-10.6-22.2-10.6H65.1c-6.3 0-12.6 2.1-17.9 6.4-7 5.7-10.6 13.9-10.6 22.2v39.7s6.1-10.1 21.8-11.1H91c6.7.4 13.5-1.7 19.2-6.3z"/></g></svg>