<?xml version="1.0" encoding="UTF-8"?>
<svg id="logosandtypes_com" data-name="logosandtypes com" xmlns="http://www.w3.org/2000/svg" viewBox="0 0 150 150">
  <defs>
    <style>
      .cls-1 {
        fill: #019df4;
      }

      .cls-2 {
        fill: none;
      }
    </style>
  </defs>
  <g id="Layer_3" data-name="Layer 3">
    <g id="Layer_2" data-name="Layer 2">
      <path id="Layer_3-2" data-name="Layer 3-2" class="cls-2" d="M0,0H150V150H0V0Z"/>
    </g>
  </g>
  <path class="cls-1" d="M117.76,20.78c31.98-6.88,34,55.77,29.69,76.1-.63,4.09-2.29,8.42-5.98,10.72-3.12,1.94-7.69,1.36-9.81-1.76-2.24-3.3-1.98-7.48-1.62-11.24,.7-7.35,1.81-14.72,1.38-22.11-.16-2.8-.5-5.77-2.11-8.13s-4.56-3.75-7.27-3.01c-12.92,3.3-19.07,33.13-23.33,44.81-3.77,11.52-12.03,18.73-24.28,19.45-3.89,.23-7.89,.28-11.66-.92-7.42-2.35-13.16-8.16-16.93-14.78-3.97-6.97-7.91-13.94-12-20.8-2.23-3.74-5.87-11.58-11.3-9.64-11.08,3.96,3.16,32.85,3.71,41.59,.16,2.45-.32,5.17-2.15,6.95-2.52,2.45-6.78,2.42-9.53,.5-2.34-1.63-3.74-4.27-4.85-6.82C1.89,103.77-1.55,83.54,2.25,64.06c2.78-14.27,10.92-31.76,28.11-31.03,13.72,.78,21.98,17.38,28.66,27.63,2.72,4.48,5.96,9.02,10.77,11.41,4.05,2.02,8.87,1.68,12.63-.83,2.95-1.97,4.72-5.19,6.04-8.38,2.93-7.05,5.57-14.23,8.7-21.19,1.56-3.48,3.04-7.01,5.28-10.1,3.72-5.14,9.08-9.36,15.31-10.79Z"/>
</svg>